          <svg xmlns="http://www.w3.org/2000/svg" viewBox="0 0 72 72">
  <style>
    svg{color:#8bc0ff}
    .mark-bg{fill:rgba(126,184,247,0.08);stroke:rgba(126,184,247,0.18);stroke-width:1.4}
    .mark-bg-square{vector-effect:non-scaling-stroke}
    .mark-art{transform-box:fill-box;transform-origin:center}
    .mark-line{fill:none;stroke:currentColor;stroke-width:3.4;stroke-linecap:round;stroke-linejoin:round}
    .mark-fill{fill:currentColor;stroke:none}
    .mark-soft{fill:rgba(139,192,255,0.22);stroke:none}
    .risk-stem,.risk-eye-dot{fill:#111}
  </style>
            <defs>
              <linearGradient id="tak-gold-top" x1="15" y1="19" x2="57" y2="31" gradientUnits="userSpaceOnUse">
                <stop offset="0" stop-color="#8a5a0a"/>
                <stop offset=".22" stop-color="#fff0a5"/>
                <stop offset=".52" stop-color="#d89d19"/>
                <stop offset=".78" stop-color="#fff7bd"/>
                <stop offset="1" stop-color="#9a660d"/>
              </linearGradient>
              <linearGradient id="tak-gold-edge" x1="15" y1="29" x2="57" y2="33" gradientUnits="userSpaceOnUse">
                <stop offset="0" stop-color="#553603"/>
                <stop offset=".5" stop-color="#b97813"/>
                <stop offset="1" stop-color="#5c3a04"/>
              </linearGradient>
              <linearGradient id="tak-silver-top" x1="14" y1="29" x2="58" y2="42" gradientUnits="userSpaceOnUse">
                <stop offset="0" stop-color="#6f7881"/>
                <stop offset=".24" stop-color="#ffffff"/>
                <stop offset=".52" stop-color="#b8c2cc"/>
                <stop offset=".8" stop-color="#f1f5f8"/>
                <stop offset="1" stop-color="#7c8791"/>
              </linearGradient>
              <linearGradient id="tak-silver-edge" x1="14" y1="40" x2="58" y2="44" gradientUnits="userSpaceOnUse">
                <stop offset="0" stop-color="#38414a"/>
                <stop offset=".5" stop-color="#8e99a3"/>
                <stop offset="1" stop-color="#3f4852"/>
              </linearGradient>
              <linearGradient id="tak-iron-top" x1="13" y1="40" x2="59" y2="54" gradientUnits="userSpaceOnUse">
                <stop offset="0" stop-color="#1a2028"/>
                <stop offset=".26" stop-color="#737b84"/>
                <stop offset=".55" stop-color="#303842"/>
                <stop offset=".82" stop-color="#9aa2aa"/>
                <stop offset="1" stop-color="#171d24"/>
              </linearGradient>
              <linearGradient id="tak-iron-edge" x1="13" y1="52" x2="59" y2="56" gradientUnits="userSpaceOnUse">
                <stop offset="0" stop-color="#0b0e13"/>
                <stop offset=".5" stop-color="#3c444d"/>
                <stop offset="1" stop-color="#0c1015"/>
              </linearGradient>
              <filter id="tak-ring-shadow" x="10" y="14" width="52" height="48" filterUnits="userSpaceOnUse">
                <feDropShadow dx="0" dy="2.2" stdDeviation="1.5" flood-color="#000" flood-opacity=".38"/>
              </filter>
            </defs>
            <rect class="mark-bg-square" x="9" y="9" width="54" height="54" rx="10" fill="#151a21" stroke="rgba(126,184,247,0.18)" stroke-width="1.4"/>
            <g filter="url(#tak-ring-shadow)">
              <g>
                <path d="M13.4 42.6C20 49.2 52 49.2 58.6 42.6L58.6 53.2C52 59.8 20 59.8 13.4 53.2Z" fill="url(#tak-iron-edge)"/>
                <path fill="url(#tak-iron-top)" fill-rule="evenodd" d="M13.4 42.6A22.6 6.2 0 1 1 58.6 42.6A22.6 6.2 0 1 1 13.4 42.6ZM16.7 42.6A19.3 3.7 0 1 0 55.3 42.6A19.3 3.7 0 1 0 16.7 42.6Z"/>
                <ellipse cx="36" cy="42.6" rx="19.3" ry="3.7" fill="#111821"/>
                <path d="M13.4 42.6C20 49.2 52 49.2 58.6 42.6" fill="none" stroke="#c3cbd4" stroke-width=".75" opacity=".4"/>
                <path d="M13.4 53.2C20 59.8 52 59.8 58.6 53.2" fill="none" stroke="#05070b" stroke-width=".85" opacity=".45"/>
                <path d="M16.7 42.6C22.3 46.2 49.7 46.2 55.3 42.6" fill="none" stroke="#05070b" stroke-width=".65" opacity=".48"/>
              </g>

              <g>
                <path d="M14.9 31.8C21.1 38 50.9 38 57.1 31.8L57.1 41.6C50.9 47.8 21.1 47.8 14.9 41.6Z" fill="url(#tak-silver-edge)"/>
                <path fill="url(#tak-silver-top)" fill-rule="evenodd" d="M14.9 31.8A21.1 5.9 0 1 1 57.1 31.8A21.1 5.9 0 1 1 14.9 31.8ZM18 31.8A18 3.5 0 1 0 54 31.8A18 3.5 0 1 0 18 31.8Z"/>
                <ellipse cx="36" cy="31.8" rx="18" ry="3.5" fill="#111821"/>
                <path d="M14.9 31.8C21.1 38 50.9 38 57.1 31.8" fill="none" stroke="#fff" stroke-width=".75" opacity=".5"/>
                <path d="M14.9 41.6C21.1 47.8 50.9 47.8 57.1 41.6" fill="none" stroke="#05070b" stroke-width=".8" opacity=".36"/>
                <path d="M18 31.8C23.2 35.2 48.8 35.2 54 31.8" fill="none" stroke="#05070b" stroke-width=".65" opacity=".4"/>
              </g>

              <g>
                <path d="M16.2 21.6C21.8 27.4 50.2 27.4 55.8 21.6L55.8 30.8C50.2 36.6 21.8 36.6 16.2 30.8Z" fill="url(#tak-gold-edge)"/>
                <path fill="url(#tak-gold-top)" fill-rule="evenodd" d="M16.2 21.6A19.8 5.5 0 1 1 55.8 21.6A19.8 5.5 0 1 1 16.2 21.6ZM19.1 21.6A16.9 3.2 0 1 0 52.9 21.6A16.9 3.2 0 1 0 19.1 21.6Z"/>
                <ellipse cx="36" cy="21.6" rx="16.9" ry="3.2" fill="#111821"/>
                <path d="M16.2 21.6C21.8 27.4 50.2 27.4 55.8 21.6" fill="none" stroke="#fff6bd" stroke-width=".75" opacity=".56"/>
                <path d="M16.2 30.8C21.8 36.6 50.2 36.6 55.8 30.8" fill="none" stroke="#05070b" stroke-width=".8" opacity=".34"/>
                <path d="M19.1 21.6C24 24.7 48 24.7 52.9 21.6" fill="none" stroke="#05070b" stroke-width=".65" opacity=".38"/>
              </g>
            </g>
          </svg>
